Coordinates
version=1
nRows=17
nColumns=40
inDegrees=yes

Units are S.I. units (second, meters, Newtons, ...)
Angles are in degrees.

endheader
time	pelvis_tilt	pelvis_list	pelvis_rotation	pelvis_tx	pelvis_ty	pelvis_tz	hip_flexion_r	hip_adduction_r	hip_rotation_r	knee_angle_r	knee_angle_r_beta	ankle_angle_r	subtalar_angle_r	mtp_angle_r	hip_flexion_l	hip_adduction_l	hip_rotation_l	knee_angle_l	knee_angle_l_beta	ankle_angle_l	subtalar_angle_l	mtp_angle_l	lumbar_extension	lumbar_bending	lumbar_rotation	arm_flex_r	arm_add_r	arm_rot_r	elbow_flex_r	pro_sup_r	wrist_flex_r	wrist_dev_r	arm_flex_l	arm_add_l	arm_rot_l	elbow_flex_l	pro_sup_l	wrist_flex_l	wrist_dev_l
      7.23000000	     -3.07907512	     -4.67969460	      3.32509807	      0.92221852	      0.93266946	      0.50733831	     11.43887618	      3.94795646	    -17.19817612	     15.07528904	     15.07528904	      9.20762976	     -1.91929500	     -4.89392135	     30.79078590	    -11.81337997	     -0.49114682	     52.51202207	     52.51202207	     14.06004806	    -19.17455715	     18.54571046	    -10.19722731	      7.09961768	      4.35921192	     15.62254176	    -16.30102588	     -3.13590097	     54.39594312	     45.02036160	      0.00000000	      0.00000000	      2.62282747	     -7.23719101	      0.78374454	     29.84741676	     44.54123973	      0.00000000	      0.00000000
      7.24221429	     -3.03082268	     -4.60276333	      3.70685510	      0.92100947	      0.93289143	      0.50721002	     10.79123526	      3.94046569	    -17.19685795	     14.81338374	     14.81338374	      9.45747102	     -2.21952413	     -4.91048099	     31.71172660	    -11.48365075	     -0.68248660	     49.99797473	     49.99797473	     13.97956258	    -19.11491521	     18.42428301	    -10.31020280	      6.99845165	      3.99343810	     17.62198160	    -16.27358242	     -3.32924902	     56.77204836	     44.96103934	      0.00000000	      0.00000000	      1.45739010	     -7.29935923	      0.78657325	     29.24804024	     44.54422887	      0.00000000	      0.00000000
      7.25442857	     -3.01823376	     -4.59929331	      4.09483186	      0.91980014	      0.93291623	      0.50704631	     10.18595992	      3.98659582	    -17.39233708	     14.54659683	     14.54659683	      9.67653237	     -2.27899455	     -5.13817713	     32.45185643	    -11.19104327	     -0.89452733	     47.10998807	     47.10998807	     13.20004345	    -19.05076011	     16.87678380	    -10.48598635	      7.00610668	      4.29680724	     18.41552193	    -17.11536782	     -3.26050077	     61.73849757	     44.82091124	      0.00000000	      0.00000000	      0.62244834	     -7.19249391	      0.69547920	     28.88342915	     44.62551787	      0.00000000	      0.00000000
      7.26664286	     -3.02242003	     -4.56759628	      4.46565024	      0.91861874	      0.93293802	      0.50676632	      9.57470848	      4.00137281	    -17.60600096	     14.23868722	     14.23868722	      9.93171126	     -2.21112183	     -5.24517424	     33.01438664	    -10.75310925	     -0.99804807	     44.01501094	     44.01501094	     12.56374175	    -18.92363280	     16.15105186	    -10.56293081	      6.99309988	      4.19829956	     20.10798935	    -17.29568052	     -3.64188442	     64.69988444	     44.76876364	      0.00000000	      0.00000000	     -0.26017203	     -7.16238216	      0.87919775	     28.05893682	     44.64156711	      0.00000000	      0.00000000
      7.27885714	     -3.03747752	     -4.44506199	      4.78683114	      0.91745370	      0.93300516	      0.50641332	      8.98194608	      3.92502187	    -17.71941756	     13.94636588	     13.94636588	     10.18579734	     -2.23859388	     -5.27534519	     33.39665512	    -10.14848950	     -1.04099305	     40.78670265	     40.78670265	     12.10953895	    -18.68428412	     16.32542560	    -10.63075907	      6.85258507	      4.15765821	     22.09956159	    -17.41511894	     -3.92324063	     66.50691495	     44.73334119	      0.00000000	      0.00000000	     -1.16084156	     -7.16695712	      0.96327373	     27.53307019	     44.62784840	      0.00000000	      0.00000000
      7.29107143	     -3.06106720	     -4.42726282	      5.12151916	      0.91634787	      0.93300900	      0.50596114	      8.34412211	      3.96037640	    -17.98074310	     13.53615656	     13.53615656	     10.40904853	     -2.02620890	     -5.33462996	     33.69241444	     -9.59911320	     -0.93322937	     37.51833340	     37.51833340	     11.46443055	    -18.28615427	     16.11511743	    -10.71913165	      6.87528832	      3.91333263	     23.98140959	    -17.37578308	     -4.13653348	     69.06435401	     44.67212353	      0.00000000	      0.00000000	     -2.13321145	     -7.17209327	      1.06482044	     26.96652166	     44.61450610	      0.00000000	      0.00000000
      7.30328571	     -3.14880350	     -4.49480247	      5.43665300	      0.91537861	      0.93278110	      0.50542869	      7.70996715	      4.06435129	    -18.52579259	     13.00856689	     13.00856689	     10.63481619	     -1.30242367	     -5.58328658	     33.95342044	     -9.16552262	     -0.85964178	     34.21643740	     34.21643740	     10.06233472	    -17.64984859	     13.80737653	    -10.75611604	      6.98953340	      4.25646552	     24.84461526	    -18.02654095	     -4.44552455	     73.64650699	     44.56945219	      0.00000000	      0.00000000	     -2.78928467	     -7.08969467	      1.28709876	     26.56177547	     44.62850056	      0.00000000	      0.00000000
      7.31550000	     -3.20286317	     -4.44494571	      5.69383123	      0.91447994	      0.93274658	      0.50489186	      7.05961112	      4.09634824	    -18.65542821	     12.52556788	     12.52556788	     10.83283685	     -1.18618222	     -5.60833165	     34.10838263	     -8.64445053	     -0.82464512	     31.13841711	     31.13841711	      9.60413727	    -16.42856364	     13.82734846	    -10.74475263	      6.91353892	      4.26321288	     26.69457145	    -18.03369482	     -4.79182054	     75.38088656	     44.54145686	      0.00000000	      0.00000000	     -3.54155151	     -7.08885106	      1.40614365	     26.09277763	     44.61277304	      0.00000000	      0.00000000
      7.32771429	     -3.27523385	     -4.49203823	      5.97205238	      0.91372093	      0.93261799	      0.50427173	      6.31126064	      4.24824820	    -18.97268026	     11.81758155	     11.81758155	     10.98944962	     -0.71267502	     -5.67210344	     34.29290021	     -8.26087980	     -0.83361622	     28.29839397	     28.29839397	      9.13809083	    -14.77211061	     13.49658450	    -10.73038020	      6.97901020	      4.11782384	     28.42640943	    -17.93385914	     -5.06752755	     77.79239400	     44.49120718	      0.00000000	      0.00000000	     -4.36712007	     -7.09302851	      1.52573709	     25.68586586	     44.59882540	      0.00000000	      0.00000000
      7.33992857	     -3.60565974	     -4.68657594	      6.21571673	      0.91284528	      0.93186765	      0.50358525	      6.04310621	      4.48470791	    -19.18076636	     11.45232040	     11.45232040	     11.19472244	     -0.57970375	     -5.74498028	     34.91272086	     -7.96915424	     -0.61093664	     25.96904130	     25.96904130	      8.86649323	    -13.23487779	     13.66894707	    -10.31627340	      7.18097373	      4.39795410	     30.26278421	    -18.35736875	     -5.37999305	     78.95049935	     44.47456238	      0.00000000	      0.00000000	     -4.96585566	     -7.00720737	      1.55540475	     25.47345756	     44.58825428	      0.00000000	      0.00000000
      7.35214286	     -3.50168098	     -4.53297554	      6.43075900	      0.91271103	      0.93218019	      0.50287088	      4.80779110	      4.51864755	    -19.52082189	     10.29170088	     10.29170088	     11.26823297	      0.31856038	     -5.76245245	     34.63013648	     -7.58640493	     -1.21393333	     23.43021957	     23.43021957	      8.55104784	    -10.81068793	     13.24600786	    -10.50528595	      6.99342796	      3.98508490	     31.64934740	    -17.73019728	     -5.44436336	     82.07038901	     44.39260458	      0.00000000	      0.00000000	     -5.84724207	     -7.05824448	      1.63858044	     25.18182824	     44.57685511	      0.00000000	      0.00000000
      7.36435714	     -3.60101830	     -4.67144585	      6.62785705	      0.91256092	      0.93174622	      0.50210433	      3.96537128	      4.78637345	    -20.01832446	      9.40984715	      9.40984715	     11.35993253	      1.30184418	     -6.03415349	     34.80778228	     -7.46055804	     -1.64229200	     21.54014061	     21.54014061	      7.89188985	     -8.77008711	     11.69806351	    -10.41759030	      7.13103948	      4.63525321	     32.28009641	    -18.32572136	     -6.11465489	     85.91438697	     44.34418577	      0.00000000	      0.00000000	     -6.32799278	     -7.06632114	      1.85349201	     25.49231004	     44.59351614	      0.00000000	      0.00000000
      7.37657143	     -3.70404391	     -4.66317625	      6.78557847	      0.91249085	      0.93139685	      0.50125629	      3.18257816	      4.90663202	    -20.12813293	      8.67195918	      8.67195918	     11.49358921	      1.67298405	     -6.00057542	     34.84858030	     -7.14419092	     -1.92503809	     19.88093373	     19.88093373	      7.60423313	     -7.35808230	     11.75546272	    -10.24326215	      7.08510152	      4.53781488	     33.84685032	    -18.02756226	     -6.30721772	     87.52919945	     44.31881141	      0.00000000	      0.00000000	     -6.95830526	     -7.09253161	      1.96756513	     25.20656220	     44.58188601	      0.00000000	      0.00000000
      7.38878571	     -3.91839364	     -4.75099399	      6.89509140	      0.91247493	      0.93066644	      0.50038688	      2.65073043	      5.07376349	    -20.20252121	      8.17739326	      8.17739326	     11.69282551	      1.93995974	     -6.00879650	     35.08289416	     -6.93360796	     -2.15677113	     18.74981262	     18.74981262	      7.36097637	     -6.42050448	     11.85835404	     -9.88686841	      7.12367874	      4.66600156	     35.36939060	    -18.04589872	     -6.48608167	     88.69334508	     44.29971712	      0.00000000	      0.00000000	     -7.45274665	     -7.07492325	      2.00064420	     25.07717972	     44.57546018	      0.00000000	      0.00000000
      7.40100000	     -3.85821219	     -4.73503654	      6.99650815	      0.91296230	      0.93036930	      0.49945103	      1.55039532	      5.22972950	    -20.38505939	      7.24280105	      7.24280105	     11.83421491	      2.69279057	     -5.91806158	     34.85541332	     -6.74556968	     -2.75400612	     17.86843547	     17.86843547	      7.19784715	     -5.34914421	     11.67658334	     -9.87963728	      7.07644040	      4.49795878	     36.53418324	    -17.54873320	     -6.50788890	     90.91228969	     44.25064061	      0.00000000	      0.00000000	     -8.11581731	     -7.13306743	      2.04045889	     25.05498357	     44.57651442	      0.00000000	      0.00000000
      7.41321429	     -3.93250422	     -4.79223144	      7.02236962	      0.91345597	      0.92960573	      0.49848099	      0.84500107	      5.36262097	    -20.44433280	      6.79062472	      6.79062472	     12.10765174	      3.11981764	     -5.87468961	     34.77202552	     -6.61285899	     -3.15696730	     17.40052762	     17.40052762	      6.99508173	     -4.99399977	     11.53045405	     -9.68525210	      7.07841483	      4.63935931	     37.67474815	    -17.42557030	     -6.60415514	     92.42519957	     44.22358450	      0.00000000	      0.00000000	     -8.59219972	     -7.16849214	      2.04531156	     25.11670472	     44.58222712	      0.00000000	      0.00000000
      7.42542857	     -3.98872745	     -4.84420744	      7.00599099	      0.91417397	      0.92875147	      0.49746852	      0.13944891	      5.46975299	    -20.46848402	      6.42137512	      6.42137512	     12.43868514	      3.57241878	     -5.74664823	     34.60161602	     -6.50108627	     -3.54800278	     17.26706735	     17.26706735	      6.69838654	     -5.06808506	     11.24760114	     -9.44950153	      7.07055326	      4.75572073	     38.66026041	    -17.27308146	     -6.66394572	     94.04085774	     44.19603087	      0.00000000	      0.00000000	     -9.08232208	     -7.21542684	      2.03286699	     25.27925017	     44.59476868	      0.00000000	      0.00000000
